PathFileType	4	(X/Y/Z)	2014001\dynamic\2014001_C3_01.trc
DataRate	CameraRate	NumFrames	NumMarkers	Units	OrigDataRate	OrigDataStartFrame	OrigNumFrames
100.000000	100.000000	4	52	mm	100.000000	48	192
Frame#	Time	L_IAS			L_IPS			R_IPS			R_IAS			L_FTC			L_FLE			L_FME			L_FAX			L_TTC			L_FAL			L_TAM			L_FCC			L_FM1			L_FM2			L_FM5			R_FTC			R_FLE			R_FME			R_FAX			R_TTC			R_FAL			R_TAM			R_FCC			R_FM1			R_FM2			R_FM5			CV7			TV10			SXS			SJN			L_SIA			L_SRS			L_SAA			L_SAE			L_HLE			L_HME			L_UOA			L_RSP			L_UHE			L_HM2			L_HM5			R_SIA			R_SRS			R_SAA			R_SAE			R_HLE			R_HME			R_UOA			R_RSP			R_UHE			R_HM2			R_HM5			
		X1	Y1	Z1	X2	Y2	Z2	X3	Y3	Z3	X4	Y4	Z4	X5	Y5	Z5	X6	Y6	Z6	X7	Y7	Z7	X8	Y8	Z8	X9	Y9	Z9	X10	Y10	Z10	X11	Y11	Z11	X12	Y12	Z12	X13	Y13	Z13	X14	Y14	Z14	X15	Y15	Z15	X16	Y16	Z16	X17	Y17	Z17	X18	Y18	Z18	X19	Y19	Z19	X20	Y20	Z20	X21	Y21	Z21	X22	Y22	Z22	X23	Y23	Z23	X24	Y24	Z24	X25	Y25	Z25	X26	Y26	Z26	X27	Y27	Z27	X28	Y28	Z28	X29	Y29	Z29	X30	Y30	Z30	X31	Y31	Z31	X32	Y32	Z32	X33	Y33	Z33	X34	Y34	Z34	X35	Y35	Z35	X36	Y36	Z36	X37	Y37	Z37	X38	Y38	Z38	X39	Y39	Z39	X40	Y40	Z40	X41	Y41	Z41	X42	Y42	Z42	X43	Y43	Z43	X44	Y44	Z44	X45	Y45	Z45	X46	Y46	Z46	X47	Y47	Z47	X48	Y48	Z48	X49	Y49	Z49	X50	Y50	Z50	X51	Y51	Z51	X52	Y52	Z52	

49	0.48	397.3166503906252	873.4487915039067	421.9470214843752	322.3360595703126	917.123168945313	245.3312072753907	232.2115325927736	914.703979492188	242.4150390625001	157.5224609375001	888.2971191406255	420.1529235839846	448.7603149414065	790.1919555664067	340.8507385253907	397.1972351074221	436.1213684082034	311.0600585937501	284.344451904297	430.9067077636721	333.5347290039064	398.3420410156252	377.5538940429689	283.5538024902345	350.043670654297	351.9812316894532	340.5651855468751	338.0303344726564	67.40596771240237	207.6716613769532	251.6653747558595	77.87890625000003	233.0674591064454	291.0744628906251	32.24424743652345	161.4400482177735	270.6207885742189	26.45356750488283	344.4310913085939	333.4199218750001	34.71104812622072	351.078338623047	377.650115966797	23.526762008667	294.079315185547	95.78688812255862	790.8997192382817	335.730438232422	96.95413970947271	465.8882141113284	476.9727783203127	213.0698242187501	450.584899902344	511.8028564453127	94.80570983886722	405.107360839844	457.2257080078127	130.9371032714844	393.2775573730471	531.045349121094	132.4349365234376	94.6017990112305	408.9093933105471	206.3882141113282	103.7288513183594	466.8033447265627	195.6452178955079	48.97387313842776	380.4526977539064	159.4671325683594	47.96237182617189	561.6441650390627	105.2748794555665	61.00877380371097	544.905456542969	79.5965270996094	44.39139556884767	487.5227050781252	279.161346435547	1384.56494140625	288.6099853515626	289.2715454101564	1154.002075195313	219.5713500976564	277.8936157226564	1153.351318359375	453.3538208007815	271.0053100585939	1316.564819335938	415.2990722656252	393.9034423828127	1198.626342773438	234.2847137451173	377.873748779297	1327.385375976563	256.105682373047	476.0780944824221	1327.188720703125	350.2100219726564	448.7893371582034	1336.578857421875	384.994812011719	538.5133056640627	1067.886108398438	457.754577636719	477.9055786132815	1018.652099609375	422.1321411132815	527.1179809570315	1018.98291015625	436.2152099609377	443.1134948730471	908.8224487304692	630.6923828125002	520.7260742187502	887.994506835938	620.927673339844	430.7800903320315	860.196166992188	702.4441528320315	514.9097900390627	819.6318359375005	659.6997680664065	182.7677001953126	1195.741333007813	201.0637207031251	197.7584991455079	1316.203369140625	237.6809692382814	87.92267608642581	1307.9736328125	303.7332458496095	92.5284118652344	1311.260864257813	353.5337219238282	35.68273925781251	1018.216064453125	261.7548828125001	115.5330657958985	1004.417663574219	248.7871551513673	71.004753112793	1000.492004394532	234.9031677246095	39.04309463500978	796.8136596679692	323.4242248535157	-7.811048030853275	805.2432250976567	257.5460815429689	15.97795867919923	703.2131958007815	330.9835510253907	-7.236899375915531	729.4638671875002	234.5522308349611	
50	0.49	397.2984313964846	872.356567382813	430.5231018066409	322.026580810547	916.255493164063	254.0005340576173	231.9239349365236	913.7210083007817	251.2169952392579	157.4119110107422	887.2385253906255	429.031921386719	448.9387817382815	789.6849975585942	348.5776977539064	397.2235412597659	436.1868896484377	313.1059570312501	284.6256408691407	430.4900512695315	335.7586669921876	398.4201354980471	377.9549865722657	285.0293579101564	350.176483154297	351.679168701172	341.7810363769532	338.0213317871095	67.87561798095706	207.7815246582032	251.6914062500001	78.39057159423831	233.3432617187501	290.9720458984376	32.84776306152345	161.4423217773438	270.7266845703126	26.47081756591798	344.4154357910157	333.5489196777345	34.6609344482422	351.0144958496095	377.6990356445314	23.48244857788087	293.9746398925782	95.78794860839847	789.6630249023442	344.5933837890626	98.35668182373053	464.4072875976565	487.069030761719	214.6559295654298	449.8968505859377	520.8826293945315	96.01039123535162	402.6720886230471	470.2116394042971	132.6421966552735	394.2748107910159	543.8226318359377	131.9347381591797	89.841423034668	441.1083679199221	206.1920318603517	102.2099227905274	497.3818054199221	194.8751525878907	42.2172203063965	415.1856689453127	159.9125061035157	52.6746520996094	596.1375122070315	105.6659698486329	64.67214965820315	579.0253906250002	79.52259063720706	44.7314796447754	522.9548950195315	278.657684326172	1383.6708984375	298.6721191406251	289.1177368164064	1153.447021484375	228.772186279297	277.3435058593751	1151.777221679688	462.4750671386721	270.2102661132814	1315.14404296875	425.1265258789065	393.9726867675784	1198.31591796875	244.0256500244142	377.6615600585939	1326.950073242188	266.3128967285157	475.353942871094	1326.75634765625	360.9338684082032	447.799987792969	1335.8525390625	395.5423889160159	538.0938110351565	1068.350952148438	470.2007446289065	477.4349670410159	1018.70361328125	435.1611328125002	526.7078857421877	1019.0126953125	449.4597167968752	441.5288391113284	912.4465332031255	645.497497558594	519.069274902344	891.0971069335942	636.2681884765627	428.8379211425784	865.312622070313	718.1437988281252	512.683532714844	823.3616333007817	676.2176513671877	182.9175109863282	1195.198608398438	210.0516662597657	197.5083923339845	1315.559814453125	247.2574462890626	87.54004669189456	1306.704467773438	312.9777221679689	91.97797393798831	1309.7001953125	362.7744140625001	35.7645950317383	1017.431640625	268.2160949707032	115.6511383056641	1003.813903808594	255.4853057861329	71.19124603271487	999.8789672851567	241.3634796142579	39.4750099182129	795.6305541992192	328.6947631835939	-7.407271385192875	804.3295288085942	262.8268432617189	16.40040016174317	702.1009521484377	335.9694213867189	-6.764048576354984	728.5979003906252	239.5867767333986	
51	0.5	397.2202758789065	871.1547851562505	439.2078247070315	321.6558837890626	915.3113403320317	262.778289794922	231.5601043701173	912.6338500976567	260.1477355957032	157.2484893798829	885.9663085937505	438.0298156738284	449.1206359863284	789.1245117187505	356.3833007812501	397.2672424316409	436.2617187500002	315.1896362304689	284.8871459960939	430.0483703613284	338.0017089843751	398.4992675781252	378.3807067871095	286.5157470703126	350.3398742675782	351.380340576172	343.0363159179689	338.016082763672	68.35819244384768	207.8811492919923	251.7500152587892	78.92724609375003	233.6309814453126	290.8995971679689	33.50169754028322	161.4620971679688	270.8258056640626	26.47854232788087	344.3609008789064	333.6784973144532	34.62423706054689	350.9502563476564	377.753631591797	23.42302322387696	293.8564758300782	95.76098632812503	788.2216186523442	353.4981384277345	99.76004028320318	462.5953369140627	496.6570434570315	216.268768310547	448.7883605957034	529.507751464844	97.18546295166021	400.128845214844	482.8001708984377	134.3497467041016	395.0940856933596	556.0516357421877	131.5038299560547	86.06259918212893	473.0404052734377	206.0540008544923	101.6299057006837	527.4129638671877	194.1791839599611	36.67322540283205	449.675720214844	160.6227264404297	58.37068176269534	629.7505493164065	106.2985610961915	69.27615356445315	612.458435058594	79.63521575927737	46.1172561645508	557.903503417969	278.0439453125001	1382.62255859375	308.7576599121095	288.8591613769532	1152.732299804688	238.0377502441407	276.6896972656251	1150.08984375	471.6623840332034	269.3343200683595	1313.603393554688	434.9895629882815	393.890563964844	1197.837280273438	253.7637939453126	377.3168029785157	1326.354858398438	276.5046691894532	474.5085449218752	1326.148315429688	371.617156982422	446.7102355957034	1334.957763671875	406.054138183594	537.5831298828127	1068.613403320313	482.3615722656252	476.8686218261721	1018.5859375	447.8967895507815	526.1921386718752	1018.860229492188	462.4000244140627	439.9611816406252	915.6918334960942	659.8298950195315	517.4168090820315	893.8469848632817	651.068298339844	426.9513244628909	869.9965820312505	733.2932128906252	510.4829101562502	826.714721679688	692.107116699219	182.9381561279297	1194.493896484375	219.1307678222657	197.1437377929689	1314.776611328125	256.868621826172	87.05296325683597	1305.312744140625	322.2797241210939	91.33619689941409	1308.046020507813	372.0739746093751	35.79756546020509	1016.501342773438	274.9864807128907	115.7329330444337	1003.048034667969	262.5450744628907	71.34190368652347	999.1098022460942	248.1710662841798	39.831844329834	794.3147583007817	334.3437500000001	-7.068650722503666	803.2994995117192	268.4852905273439	16.79526138305665	700.8394775390627	341.2873535156251	-6.357403278350834	727.6397705078127	244.9667968750001	
52	0.51	397.0908203125002	869.845336914063	447.9841003417971	321.2093200683595	914.2946166992192	271.6612854003907	231.1056213378907	911.4400024414067	269.2124023437501	157.0472412109376	884.4738159179692	447.1592102050784	449.3011169433596	788.5093383789067	364.2579650878907	397.3325500488284	436.338317871094	317.3586425781251	285.133270263672	429.5753173828127	340.3221435546876	398.5833435058596	378.8196105957032	288.0674438476564	350.5425415039064	351.0808715820314	344.3825988769532	338.0181884765626	68.85614776611331	207.9778900146486	251.8433837890626	79.48811340332034	233.9383544921876	290.8602600097657	34.21893692016603	161.5028381347657	270.9212646484376	26.4826126098633	344.2696228027345	333.8059082031251	34.5980796813965	350.8875427246095	377.8154296875001	23.34809684753419	293.7280578613282	95.6978454589844	786.577758789063	362.4707946777345	101.1421279907227	460.5050964355471	505.8401794433596	217.8999633789064	447.3150939941409	537.7874755859377	98.32427978515631	397.5209655761721	495.0323181152346	136.0443267822266	395.7477111816409	567.8182373046877	131.1804351806641	83.25208282470706	504.4353942871096	206.0145111083986	101.9282608032227	556.6956176757815	193.6033020019532	32.32898712158205	483.5991516113284	161.6267547607422	64.90189361572268	662.2515869140627	107.1997909545899	74.69100189208987	644.971130371094	79.97470855712893	48.44763183593753	592.105651855469	277.3193969726564	1381.422119140625	318.8656311035157	288.4936828613282	1151.858520507813	247.3751525878907	275.9391174316407	1148.300048828125	480.9282836914065	268.3771362304689	1311.948486328125	444.8893127441409	393.6492919921877	1197.182739257813	263.509246826172	376.8340454101564	1325.594970703125	286.6824340820314	473.545104980469	1325.363647460938	382.248748779297	445.5252990722659	1333.901489257813	416.5216979980471	536.9890136718752	1068.669189453125	494.242370605469	476.2244567871096	1018.291137695313	460.3273010253909	525.588073730469	1018.521240234375	475.0286560058596	438.406677246094	918.538208007813	673.6846923828127	515.7693481445315	896.2282104492192	665.3389282226565	425.1057739257815	874.2152709960942	747.886413574219	508.3153381347659	829.6743164062505	707.380065917969	182.8369598388672	1193.610107421875	228.3042297363282	196.6691741943361	1313.841552734375	266.5185546875001	86.46424102783206	1303.793701171875	331.630828857422	90.5987243652344	1306.30029296875	381.4234924316407	35.77342987060548	1015.415344238282	282.0628356933595	115.7680282592774	1002.108520507813	269.9636230468751	71.44726562500003	998.1729125976567	255.3236083984376	40.08572387695314	792.8638305664067	340.3806457519532	-6.799831867218021	802.1384887695317	274.5131225585939	17.13837623596192	699.4229736328127	346.944061279297	-6.004240512847904	726.5701904296877	250.689422607422	
